<?xml version="1.0" standalone="yes"?>
<svg xmlns="http://www.w3.org/2000/svg" width="500" height="500">
<path style="fill:#ffffff; stroke:none;" d="M0 0L0 500L500 500L500 0L0 0z"/>
<path style="fill:#e5b843; stroke:none;" d="M271 146L271.015 147.671C271.04 148.463 271.08 149.258 271.17 150.045L271.834 155L272.166 159L272.834 164L273.075 167L273.285 169L273.576 171L273.834 173L274.166 177L274.83 181.975C274.994 183.649 274.986 185.32 275 187L273.375 186.103L273 185.959L271.625 185.415L270 185L270.183 186.671L270.275 187.159L270.426 188.16L270.87 191.005L271.271 194L271.729 197L272.271 201L272.729 204L273.13 206.995L273.574 209.84L273.725 210.841L273.817 211.329L274 213L270 211L270.316 212.671L271.389 218.002L272.08 222L272.576 225L273.424 231L274.586 238L275.424 243L276.389 248L277.25 252.84L277.564 254.329L278 256L278.585 254.914L278.642 254.483L278.84 253.679L278.981 251.941L279.169 248.999L279.83 244C280.055 241.681 279.919 239.327 280.319 237.025L280.735 235.16L281.083 234.159L281.232 233.671L282 232L282 233L283 235L283.585 233.914L283.642 233.483L283.84 232.679C283.944 231.784 283.964 230.881 283.986 229.981L284 225L284 207L285.114 208.645L286.886 211.355L288 213L288.585 211.914L288.642 211.483L288.84 210.679C288.944 209.783 288.958 208.882 288.986 207.981L289 204L289 190C290.649 191.643 292.265 193.334 294.025 194.861C295.16 195.847 296.474 196.784 298 197.003L300 196.858L301 196.528L302 196.076L302.998 195.556L303.995 194.998L306.84 193.41L308.329 192.673L310 192L310.098 190.329L310.167 189.841L310.286 188.84C310.473 187.56 310.705 186.287 310.83 184.998C310.96 183.668 310.97 182.334 311.035 181C311.085 179.994 311.167 179 311.285 178C311.444 176.664 311.721 175.342 311.83 174L311.961 172L311.984 169C311.968 167.668 311.909 166.296 311.57 165L311.272 164L310.348 162C309.765 160.946 309.044 159.983 308.355 159L306.127 156L303.87 153.02L303.112 152.062L301.536 150.358L300.7 149.697L298.91 148.932L297.961 148.847L296.985 148.937L295.998 149.163L294.025 149.867L292.16 150.68L291.159 151.11L290.671 151.343L289 152L288.938 150.349L288.853 149.9L288.682 148.988L287.972 147.579L287.397 147.023L286.682 146.602L285.852 146.318L284.941 146.148L282.995 146.019L281.999 146.005L279 146L271 146z"/>
<path style="fill:#ffffff; stroke:none;" d="M289 157L289 175L289.005 180.999L289.059 182.985L289.148 183.96L289.318 184.907L290.028 186.671L290.603 187.466L291.318 188.191L293.054 189.369L294 189.762L294.946 189.979L295.853 189.978L297.397 189.289L298.397 187.836L298.682 186.938L298.852 185.98C298.964 184.988 298.983 183.997 298.995 183L299 180C299 177.668 299.051 175.325 298.83 173L298.424 170C298.285 169.001 298.158 168.007 298.09 167C297.976 165.337 298.003 163.666 298 162L298 154L296.329 154.228L294.844 154.635C293.591 155.069 292.374 155.589 291.157 156.114L290.671 156.343L289 157z"/>
<path style="fill:#e5b843; stroke:none;" d="M79 158L79.9267 159.671C80.5183 160.755 81.1007 161.835 81.4552 163.025L81.8565 165.002L81.9421 166L81.9954 168L81.9992 169L82 172L82 186L81.9992 190L81.9807 192L81.8519 193.996L81.6821 194.985L80.9722 196.895L80.3966 197.787L78.8519 199.363L76.9853 200.647L75.044 201.727L74.1605 202.184L72.6713 202.989L71 204L70.9992 198.975C70.9963 197.651 71.0011 196.322 70.9105 195C70.7497 192.652 70.2503 190.348 70.0895 188C69.9756 186.337 70.0027 184.665 70 183L70 177L70.0008 172C70.0094 170.338 69.9742 168.655 70.2099 167.005L70.6034 165.045L71.2029 163.159L72 161L53 161L53.5363 162.671L53.7693 163.159L54.5741 165.045L55.3164 167.005L55.7762 169L55.956 171L55.9992 174L56 181L56 204L52.8881 201.836L51.2616 200.461L50.0401 198.819L49.6319 197.005L49.7176 196.146L50.1914 194.671L51 193L48.8997 193.423L47.9884 193.743L46.5941 194.742L45.7099 196.228L45.5671 198.043L45.7616 199.012L46.1088 199.988L47.1489 201.895L48.5332 203.606L49.3279 204.347L51.0687 205.543L52.8542 206.346L53.8449 206.617L56 207L56 223L55.9954 226L55.9807 227L55.8519 228.999L55.6836 229.995L54.9969 231.941L53.8426 233.679L53.0116 234.483L52.6096 234.914L51 236L52.0864 236.585L52.517 236.642L53.321 236.84C54.2172 236.944 55.1183 236.958 56.0185 236.986L60 237L75 237C74.327 236.185 73.6398 235.389 72.9969 234.55L72.4653 233.777L71.5849 231.955C71.1427 230.686 71.0519 229.333 71.0193 228L71 223L71 208L72.6713 207.801L74.1605 207.47C75.114 207.198 76.0552 206.902 76.9799 206.542L78.8395 205.746L79.841 205.229L80.3287 204.998L82 204L82 227L81.9807 233L81.9414 233.999L81.8534 234.995L81.4213 236.941L80.5563 238.679L79.8441 239.483L78 241L79.0864 241.585L79.517 241.642L80.321 241.84C81.2172 241.944 82.1183 241.958 83.0185 241.986L87 242L99 242L98.0733 240.329C97.4817 239.245 96.8994 238.165 96.5448 236.975C95.9665 235.035 96.0144 233.003 96.0008 231L96 224L96 206L96 204L96.0046 202L96.0586 200.005L96.1481 199.019L96.6034 197.149L97.6034 195.623L99.1435 194.752L100.039 194.636L101.856 195.086L102.683 195.623L103.397 196.323L103.976 197.149L104.411 198.059L104.942 200.005L105.115 201.001C105.287 202.003 105.44 203.008 105.668 204C105.9 205.006 106.147 206.006 106.428 207L107.356 209.999L108.069 211.985L108.468 212.956L109.417 214.771L109.995 215.562L110.649 216.242L112.214 217.15L114.042 217.354L115.979 216.892L116.956 216.465L117.84 216.012L119.329 215.121L121 214L121.035 215.645L121.16 217L121.358 217.886L121.415 218.355L122 220L123.671 219.096L125.16 218.104L127.01 216.656L128.907 214.907L130.656 213.01L132.104 211.16L133.096 209.671L134 208L132.431 207.005L131.869 206.39L131.293 204.851L131.057 202.981L131.001 200L131 192L131 188L130.995 185C130.967 183.329 130.974 181.617 130.486 180.001L129.682 178.015L129.106 177.039L128.427 176.09L126.811 174.3L125.906 173.464L123.985 171.889L121.999 170.398L120 169.076L118 168.24L117 168.124L116 168.226L115 168.535L114 168.986L112.001 170.113L110.019 171.313L108.152 172.633L107.333 173.39L106.122 175.105L105.792 176.043L105.717 178.004L105.938 179L106.298 179.995L107.343 181.941L108.684 183.682L110.144 184.971L111.427 185.657L113 186L112.91 183.842L113.023 182.843L113.772 181.015L115.183 179.187L116.049 178.344L117.845 176.896L119.329 175.904L121 175L121 196L121 201L120.96 204.995L120.822 206.955L120.522 208.841L120.432 209.329L120 211L118 211L117.59 209.329L117.424 208.841L117.118 207.84L116.504 205.975L115.924 203.998L115.468 202L115.305 201L115.189 200L115.144 198C115.192 196.99 115.359 196.007 115.594 195.025L116.133 193.16L116.427 192.159L116.59 191.671L117 190L115.329 190.414L114.841 190.592L113.84 190.926L111.977 191.72C110.963 192.205 109.995 192.762 109.045 193.361L107.159 194.615L106.671 194.971L105 196L105.657 194.333L105.887 193.866L106.685 192.116L107.113 191.134L107.343 190.667L108 189L106.329 188.416L104.84 188.175L102.977 188.127L101.023 188.323L99.1605 188.735L98.159 189.083L96 190L95.5679 188.329L95.4784 187.841L95.1782 185.955L95.0903 184.975L95.0401 183.995L95 180L95 174L95.0046 169C95.0335 167.321 95.0464 165.631 95.5093 164.002L96.2593 162.025L96.7546 161.045L97.8171 159.159L98.1165 158.671L99 157C97.3204 157.014 95.6493 157.006 93.9753 157.17L91 157.576C90.001 157.715 89.0068 157.842 88 157.91C86.6777 158.001 85.3493 157.996 84.0247 157.999L79 158M363 158L361.512 159.671L361.117 160.159C360.032 161.451 358.956 162.753 357.826 164.005C356.592 165.37 355.315 166.702 353.996 167.985L352.002 169.906L350.025 171.656L348.16 173.104L346.671 174.096L345 175L346.086 175.585L346.517 175.642L347.319 175.84C348.201 175.943 349.088 175.957 349.974 175.986L351.842 175.999L354 176L354 193L354 198L353.961 202L353.91 203L353.715 205L353.424 207C353.288 208 353.158 208.993 353.09 210C352.998 211.331 353.004 212.667 353.001 214L353.001 219C353.008 220.33 352.975 221.674 353.109 222.999C353.244 224.34 353.501 225.682 354.179 226.867C354.704 227.785 355.393 228.538 356.228 229.182C357.078 229.837 358.048 230.302 359.014 230.752L359.999 231.17L360.976 231.556L362.84 232.209L364.329 232.643L366 233L365.287 231.329L365.035 230.841L364.179 228.955C363.787 227.989 363.469 227.025 363.274 225.998C362.962 224.358 363.011 222.661 363.001 221L363.001 218C363.011 216.331 363.011 214.664 363.17 213L363.715 209C363.838 208.001 363.917 207.006 363.961 206C364.019 204.669 363.999 203.332 364 202L364 196L364 177C365.68 176.986 367.351 176.995 369.025 176.83C370.637 176.672 372.232 176.366 373.84 176.17L375.329 176.042L377 176L377 213L377 219L377.015 221.999C377.075 223.903 377.109 225.947 378.179 227.606L379.434 229.005L380.228 229.583L382.044 230.532L383.999 231.3L386.84 232.234L388.329 232.646L390 233L389.047 231.329L388.748 230.841L387.774 228.955L387.148 226.995L386.942 225L386.939 224L386.976 222L387 215L387 191L387.001 186L387.019 184.001L387.059 183.005L387.318 181.059L387.603 180.148L388.026 179.318L388.599 178.603L389.293 178.028L390.898 177.318L391.86 177.147L392.333 177.062L394 177L393.808 175.375L393.721 175L393.433 173.625L393 172L387 172L387 158L385.776 159.086L385.402 159.517L384.64 160.32L381.599 163.915C380.302 165.407 378.953 166.843 377.561 168.245C376.719 169.093 375.849 169.925 374.935 170.695L373.146 172.108L372.155 172.759L371.671 173.096L370 174L369.347 172.983L369.009 172.836L368.414 172.45L367.012 172.124L365.651 172.019L364 172L363.999 164.999L363.966 162.059L363.84 160.321L363.642 159.517L363.585 159.086L363 158M146 161L144.329 162.569L142.844 163.835L140.144 165.98L138.61 167.354L137.995 168.156L137.654 168.527L137 170L141 170L141 199L141 202L140.995 204L140.943 205.995L140.707 207.941L140.131 209.679L139.329 210.914L138 212L139.086 212.585L139.517 212.642L140.321 212.84C141.543 212.982 142.775 212.982 144.003 212.997L151 213L150.684 211.329L149.999 207.975C149.673 206.325 149.338 204.675 149.171 203C148.971 201.007 149.003 199 149 197L149 188L149 183L149.04 179.005L149.09 178.025L149.178 177.045L149.478 175.159L149.568 174.671L150 173L152 173L152.542 174.667C152.899 175.726 153.272 176.77 153.561 177.85L153.788 179.532L153.756 180.265L153.502 181.512L153 183L154.671 182.574L156.16 182.024C157.117 181.609 158.042 181.156 158.946 180.633L159.853 180.03L160.677 179.362L161.917 177.787L162.264 176.895L162.353 174.985L161.767 172.999L160.802 171.005L160.25 170.02L159.045 168.164C158.288 167.122 157.223 166.187 155.895 166.036C154.87 165.92 153.917 166.296 153.021 166.742L151.16 167.912L150.159 168.592L149.671 168.96L148 170L148 161L146 161M174 161L170.84 163.265L168.995 164.6L167.147 165.992L165.61 167.355L164.995 168.156L164.654 168.527L164 170L168 170L168 199L168 202L167.995 204L167.943 205.995L167.707 207.941L167.131 209.679L166.329 210.914L165 212L166.086 212.585L166.517 212.642L167.321 212.84L169.059 212.966L171.999 212.999L179 213L178.256 211.329C177.943 210.557 177.645 209.766 177.45 208.955L177.22 207.975L176.733 205C176.48 203.337 176.205 201.68 176.09 200C175.998 198.669 176.005 197.333 176.001 196L176 192L176 173L177.554 173.654L178.737 174.61L179.892 176.149L180.644 178.015L180.863 179.956L180.806 180.84L180.513 182.329L180 184L181.671 183.142L182.159 182.863L185.02 181.295L187.84 179.815L188.841 179.258L189.329 179.011L191 178L190.571 176.329L190 174.84L189.094 172.975L187.981 171.003L186.756 169.062L185.39 167.362L184.621 166.712L183.79 166.256L182.897 166.035L181.961 166.056L180.041 166.756L179.16 167.293L177.671 168.448L176 170L175.568 168.329L175.286 166.844L174.947 164.133L174.854 163.319L174.646 162.517L174.586 162.086L174 161M439 161L435.84 163.149L433.995 164.448L432.147 165.876L430.61 167.305L429.995 168.131L429.654 168.515L429 170L433 170L433 199L433 202L432.995 204L432.943 205.995L432.707 207.941L432.131 209.679L431.329 210.914L430 212L431.086 212.585L431.517 212.642L432.321 212.84C433.543 212.982 434.775 212.982 436.003 212.997L443 213L442.003 209.84L441.515 207.975L441.184 205.998C441.064 205.004 441.036 204.001 441.015 203L441 200L441 193L441 173L442.554 173.654L443.737 174.61L444.892 176.149L445.644 178.015L445.863 179.956L445.806 180.84L445.513 182.329L445 184L446.671 183.139L447.159 182.852L448.16 182.292L451.957 180.13L454.329 178.882L456 178L455.532 176.329L454.859 174.84C454.341 173.867 453.754 172.939 453.186 171.996L451.987 170.02L451.409 169.062L450.2 167.361L449.505 166.708L448.726 166.242L447.867 165.997L445.986 166.139L445.02 166.457C444.033 166.863 443.101 167.37 442.159 167.867L441.671 168.143L440 169L439.966 165.014L439.84 163.316L439.642 162.515L439.585 162.086L439 161M418 207L416.982 208.086L416.833 208.517L416.434 209.321L416.019 211.059L415.841 212.019L415.37 213.996C414.981 215.316 414.427 216.578 413.886 217.841L413.657 218.329L413 220L411.488 218.329L411.156 217.841L410.444 216.84L409.579 214.975C409.134 213.702 409.06 212.335 409.019 211L408.986 209C408.957 207.997 408.925 207 408.83 206C408.735 204.996 408.57 204.002 408.424 203.005L408.17 201.045C408.08 200.258 408.04 199.463 408.015 198.671L408 197C409.044 196.828 410.101 196.594 411.16 196.508C412.114 196.432 413.052 196.444 414.005 196.529L416 196.818L418.985 197.326L419.956 197.413L421.772 197.226L423.258 196.357L423.82 195.667L424.552 193.941L424.798 191.995L424.772 190.999L424.481 189L423.981 187.001L423.687 186.004L423.007 184.043L422.581 183.104L421.437 181.376C420.713 180.516 419.828 179.86 418.942 179.183L416.995 177.857L415.004 176.682L414.015 176.244L413.039 175.951L412.09 175.849L411.17 175.93C410.219 176.094 409.373 176.617 408.576 177.124L406.83 178.36L404.961 179.721C403.66 180.677 402.327 181.605 401.109 182.669C399.966 183.667 398.908 184.744 398.179 186.09L397.43 188.015L397.214 189.004L396.954 191L396.846 192L396.576 194C396.44 194.999 396.252 195.994 396.17 197L396.039 199L396.002 202L396.015 204C396.039 205.002 396.065 206.003 396.174 207L396.483 208.999L396.724 209.996C396.976 211.008 397.395 212.02 397.938 212.91L399.303 214.715L400.144 215.576L401.058 216.424L403.005 218.15C403.991 219.017 404.971 219.88 406 220.697L408 221.972L409.996 222.663L410.985 222.793L412.907 222.663L414.675 221.971L415.485 221.397L416.25 220.682L416.981 219.852L418.365 217.981C419.367 216.479 420.352 214.862 420.424 213.005L420.137 211.045L419.826 210.16L419.079 208.671L418 207M331 179.631L329 180.269C327.986 180.67 326.985 181.091 326 181.559C324.977 182.046 323.986 182.568 323.005 183.133L321.059 184.474L319.318 186.13L318.028 188.019L317.603 189.005L317.148 191L317.059 192L317.001 195L317 200L316.985 203L316.91 205L316.715 207C316.471 208.983 316.016 211.01 316.473 213L316.757 214L317.743 215.996L318.434 216.985L319.228 217.961L321.044 219.829L323.004 221.556L324.001 222.366L326 223.851L327 224.482L328 224.997L330 225.593L331 225.668L333 225.463L335 224.956L337 224.3L338.999 223.532L340.985 222.583L342.891 221.351L344.566 219.786L345.821 217.957L346.257 216.985L346.757 214.999L346.867 213L346.815 212L346.711 211L346.424 209L346.17 207C346.088 205.999 346.039 205.004 346.015 204L345.996 197C345.971 194.99 345.945 192.966 345.467 191L344.852 189L344.427 188.001L343.91 187.004L342.581 185.04L341.775 184.094L339.956 182.344L337.996 180.894L336.999 180.322L336 179.873L334 179.383L333 179.343L331 179.631z"/>
<path style="fill:#ffffff; stroke:none;" d="M410 179L409.414 180.671L409.354 181.159L409.146 182.16L409.054 183.045L408.718 186L408.17 189.84L408.042 191.329L408 193L417 193L416.575 191.329L416.387 190.841L416.039 189.84L414.42 185.999L413.12 183.059L412.16 181.321L411.242 180.086L410 179z"/>
<path style="fill:#e5b843; stroke:none;" d="M215 180L215 181L217 182L215.989 183.671L215.742 184.159L215.188 185.16L211.753 192L209.349 196.84L208.901 197.841L208.66 198.329L208 200L206.941 198.329L206.279 196.84L205.685 194.975C205.431 193.99 205.204 192.999 205.008 192C204.815 191.012 204.651 190.025 204.529 189.025L204.46 187.16L204.567 186.159L205 184L192 184L192.657 185.671L192.89 186.159L193.725 188.045C194.726 190.339 195.709 192.647 196.564 195C196.924 195.991 197.261 196.989 197.562 198C197.955 199.322 198.292 200.662 198.625 202L199.333 205C199.604 206.316 199.838 207.651 199.805 209C199.779 210.02 199.633 211.016 199.358 212C198.966 213.403 198.323 214.704 197.672 216L197.12 216.999L195.895 218.981C194.813 220.539 193.603 222.048 191.907 222.972C190.698 223.631 189.354 223.849 187.999 223.938C187.004 224.002 185.994 223.971 185 223.91C183.32 223.806 181.665 223.511 180.002 223.271L176.16 222.725L174.671 222.433L173 222L173 220L174.671 219.381L177.02 218.513L178.844 217.921L182 217L180.914 216.415L180.483 216.358L179.679 216.16C178.458 216.018 177.227 216.018 176 216.003L170 216L168.975 217.667L168.631 218.134L167.472 219.884L166.937 220.866L166.635 221.333L166 223L167.671 223.998L169.16 224.747L171.025 225.557C172.337 226.073 173.664 226.546 175 226.996L178 227.961L180 228.497C181.314 228.827 182.665 229.018 184 229.245C185.327 229.471 186.659 229.701 188 229.83C189.659 229.991 191.33 230.01 192.996 229.98L194.96 229.852L196.816 229.397L197.674 228.972L199.24 227.682L199.96 226.852L201.329 224.981L203.333 222C204.213 220.676 205.1 219.354 205.935 218C206.543 217.015 207.14 216.02 207.688 215C209.114 212.351 210.396 209.628 211.862 207C213.37 204.297 215.036 201.686 216.573 199C217.326 197.683 218.047 196.349 218.742 195L220.258 192C220.956 190.652 221.678 189.322 222.424 188L224.095 185.025L225 183.16L225.571 181.671L226 180L215 180z"/>
<path style="fill:#ffffff; stroke:none;" d="M332 183L330.39 184.239L329.988 184.637L329.157 185.45L328.003 187.115L327.316 189.016L327.148 190.004L327.019 192L327.005 193L327 196L327 206L327.001 211L327.015 213L327.094 214.999L327.344 216.981L327.894 218.851L328.857 220.381L330.263 221.288L331.09 221.454L332.79 221.199L334.258 220.253L335.258 218.772L335.772 216.956L335.891 215.985C335.961 214.988 335.982 213.998 335.996 213L335.999 210C335.989 208.331 335.989 206.664 335.83 205L335.285 201C335.162 200.001 335.083 199.006 335.039 198L335.004 196C334.996 194 335.031 191.998 334.906 190.001L334.66 188.019L334.451 187.059L333.836 185.321L333.115 184.086L332 183z"/>
<path style="fill:#e5b843; stroke:none;" d="M153 240C152.749 241.345 152.472 242.691 152.272 244.045L151.565 249L150.29 255.84L150.098 257.329L150 259L151.671 257.934L152.159 257.541L153.16 256.823L154.045 256.165L155.025 255.505L157.002 254.429L159 253.724L160 253.483L161 253.305L163 253.09C163.995 253 165.002 253.023 166 253.004L168 253.001L170.995 253.059L171.981 253.148L172.945 253.318L174.721 254.028L176.142 255.318L177.106 257.059L177.427 258.019L177.812 260.001L177.975 262L178.169 265L178.718 269L179.282 274L179.83 277.975C179.995 279.649 179.986 281.32 180 283L178.375 282.375L178 282.2L176.625 281.625L175 281C175.009 282.051 174.99 283.109 175.039 284.16C175.084 285.113 175.163 286.06 175.3 287.005C175.496 288.353 175.82 289.672 176.117 291L176.739 294L177.079 296L177.728 300L178.13 302.995L178.574 305.84L178.725 306.841L178.817 307.329L179 309L175 307L175.09 309.159L175.174 310.16L175.464 312.025L176.35 316C176.722 317.661 177.073 319.327 177.389 321L178.414 327L180.08 337L181.08 343C181.345 344.611 181.629 346.219 181.83 347.84L181.958 349.329L182 351L182.768 349.914L183.265 348.679C183.512 347.791 183.72 346.9 183.817 345.981L184.169 341C184.303 339.661 184.533 338.333 184.715 337L184.91 335.002C184.978 334.017 184.987 333.031 184.996 332.045L185 328L186.653 329.347L187.091 329.674L188 331L188.585 329.914L188.642 329.483L188.84 328.679C188.944 327.784 188.964 326.881 188.986 325.981L189 321L189 304L190.179 305.494L190.542 306L192 308L192.585 306.914L192.642 306.483L192.84 305.679C192.982 304.457 192.982 303.224 192.997 301.995L193 295L193 269L193 263L193.019 260.001L193.148 258.019L193.318 257.059L194.028 255.318L194.603 254.603L196.148 253.603L197.059 253.318L199.005 253.059L201 253.005L204 253.001C205.336 253.007 206.666 253.018 208 253.105L210 253.394C211.028 253.629 212.052 253.96 212.995 254.438L214.955 255.515L216.841 256.694L217.329 257.028L219 258L218.958 256.329L218.91 255.841L218.7 253.955L218.536 252.975L218.116 250.998L217.449 248L216.753 244.045L216 240L211.955 240.001C210.301 240.012 208.649 240.013 207 240.17L203 240.715L201 240.91L199 240.985L196 241L192 241L179 241L169 241L166 240.999L163 240.961C161.995 240.917 161 240.838 160.002 240.715L156.16 240.17L154.671 240.042L153 240M232 257L230.329 258.344L226.98 260.89L224.16 262.98L223.159 263.654L222.671 264.012L221 265L222.06 265.585L222.472 265.642L223.16 265.84L224.39 265.965L226 266L226 291L226 298L225.981 301C225.952 301.994 225.913 302.993 225.741 303.975C225.537 305.133 225.184 306.24 224.744 307.329L224 309L237 309L236.059 306.841L235.669 305.84L235.09 303.975C234.841 302.99 234.612 302.003 234.443 301C234.276 300.008 234.144 299.005 234.09 298C233.998 296.334 234.003 294.668 234 293L234 285L234 279L234.04 275.005L234.178 273.045L234.478 271.159L234.568 270.671L235 269L237 269L237.413 270.671L237.583 271.155L237.891 272.146L238.472 273.934L238.701 274.83L238.868 276.53L238.806 277.265L238.513 278.512L238 280L239.671 279.339L241.159 278.64C242.741 277.846 244.29 276.99 245.841 276.137L246.329 275.858L248 275L247.886 273.329L247.609 271.84L247.034 269.975L246.647 268.995L245.722 267.005L244.647 265.063L243.363 263.373L242.61 262.737L241.787 262.306L240.897 262.116C239.876 262.031 238.918 262.441 238.041 262.907L236.159 264.18L235.671 264.532L234 266L234 257L232 257M254 272L255.671 271.886L256.158 271.789L258.025 271.347L259.857 270.543L260.684 269.991L261.971 268.606L262.667 266.895L262.852 264.989L262.709 263.044C262.515 261.688 262.25 260.347 262 259L260.329 258.958L259.841 258.912L257.956 258.734L256.015 258.573L255.057 258.603L254.148 258.773L253.318 259.117L252.603 259.643L252.029 260.333L251.607 261.152L251.192 263.019L251.167 264.005L251.243 264.999L251.684 266.975L252.422 268.84L254 272M307 272L308.671 271.886L309.158 271.789L311.025 271.347L312.857 270.543L313.684 269.991L314.397 269.347L315.397 267.786L315.848 265.957L315.941 264.001L315.905 263.024L315.711 261.16L315.522 260.159L315 258L313.329 258.39L312.841 258.434L310.956 258.552L309.014 258.493L308.053 258.499L306.279 258.831L304.862 259.757L303.937 261.229L303.558 263.044L303.742 265.002L304.413 266.975L304.874 267.955L305.867 269.841L307 272M329 283L329.335 281.329L329.384 280.842C329.571 279.881 329.726 278.905 330.163 278.015L331.353 276.184L332.157 275.33L333.975 273.799L335.842 272.47L338 271L338 292L338 297L337.96 300.995L337.91 301.975L337.822 302.955L337.522 304.841L337.432 305.329L337 307L335 307L334.464 305.329L334.231 304.841L333.824 303.84L333.426 302.955L332.684 300.995L332.224 299L332.108 298L332.02 296C331.999 294.33 332.065 292.636 332.545 291.025C332.899 289.835 333.482 288.755 334.073 287.671L335 286L333.329 286.228L331.84 286.639L329.976 287.363C328.642 287.983 327.315 288.643 326.094 289.468C324.651 290.444 323.208 291.595 322.408 293.185L322.032 294.093L321.742 296.015L321.943 298.001C322.142 299.009 322.379 300.006 322.641 301C323.178 303.04 323.835 305.039 324.616 306.999C325.015 308.001 325.438 308.983 325.904 309.956L326.969 311.772L328.234 313.26L329.443 314.225L331 315L332.667 313.758L333.134 313.471L334.884 312.408L336.333 311.672L338 311L338 315L339.671 314.755L341.16 314.257L343.01 313.258L344.907 311.772L346.656 309.961L347.427 309.009L348.676 307.16L349.444 305.671L350 304L348.431 303.005L347.869 302.39L347.293 300.851L347.057 298.981L347.019 297.995L347.001 296L347.001 294C347.008 292.331 347.011 290.663 347.17 289C347.329 287.325 347.674 285.675 347.83 284C347.955 282.667 347.98 281.338 347.953 280L347.786 278.001L347.347 276.015L346.543 274.093L345.991 273.184L345.347 272.325L343.786 270.746L341.957 269.27L339.996 267.784C339.017 267.074 338.064 266.306 337 265.721C336.062 265.205 335.083 264.783 334 264.711C332.586 264.616 331.214 265.139 330 265.816L328.005 267.02L327.019 267.675L325.149 269.04L323.619 270.518L322.711 272.184L322.567 274.04L323.109 276.003L323.576 276.996L324.779 278.941L326.17 280.679L327.431 281.914L329 283M270 273L270 294L270 299C270.003 300.665 269.973 302.338 270.09 304C270.207 305.681 270.453 307.355 270.823 309L271.329 311L271.66 312L272.529 313.999L273.634 315.98L274.248 316.938L275.61 318.638L276.379 319.288L277.21 319.744L278.104 319.963C279.524 320.115 280.88 319.368 282.001 318.587C283.036 317.865 284.009 317.062 285 316.281L287 314.742L288.999 313.255L290.981 311.675L291.941 310.816L292.852 309.907L293.683 308.96L294.987 306.996C295.489 306.051 295.776 305.034 296.022 304C296.255 303.015 296.421 302.001 296.571 301C296.72 300.005 296.856 299.005 296.91 298C297.001 296.334 296.997 294.668 297 293L297 287L296.995 285.001L296.941 283.019C296.849 281.8 296.693 280.541 295.972 279.51C295.243 278.467 294.118 277.892 292.986 277.394C291.699 276.828 290.331 276.439 289 276L289 290L288.999 300C288.983 302.342 289.097 304.841 287.972 306.98L286.683 308.833L285.857 309.623L284.961 310.248L284.039 310.654L283.143 310.793L281.603 310.248L280.603 308.833L280.318 307.937L280.059 305.995C279.965 304.333 280.001 302.664 280 301L280 288C279.998 286.669 280.027 285.331 279.956 284.001C279.886 282.68 279.766 281.327 279.258 280.09L278.258 278.29L277.566 277.444L276.773 276.634L274.981 275.148L273.157 273.99L271.671 273.339L270 273M251 279L251.522 281.159L251.711 282.16L251.91 284.025L251.96 285.005L252 289L252 297L252 305C251.997 306.665 252.024 308.337 251.91 310C251.795 311.68 251.516 313.336 251.27 315C251.074 316.326 250.932 317.666 250.639 318.975L250.137 320.84L249 324L262 324L261.512 322.329L261.4 321.841L261.039 319.955L260.901 317.995L260.975 314C261.014 311.999 260.98 309.995 261.17 308C261.329 306.325 261.671 304.674 261.83 303C261.989 301.337 261.991 299.669 261.999 298L262 292L262 287L261.981 284.005L261.852 282.059L261.682 281.148L260.972 279.603C260.242 278.681 259.081 278.266 257.943 278.151C256.681 278.024 255.423 278.037 254.16 278.161L253.159 278.358L252.671 278.415L251 279M304 278C304.006 280.003 303.976 282.008 304.17 284.005L304.715 288C304.838 288.999 304.917 289.994 304.961 291L304.999 294L305 299L304.996 303C304.987 304 304.979 305.002 304.91 306L304.715 308C304.533 309.333 304.303 310.661 304.169 312C303.968 314 304.004 316.015 303.625 317.995C303.44 318.964 303.145 319.896 302.867 320.84L302.573 321.841L302.41 322.329L302 324L315 324L314.256 322.329C313.82 321.247 313.45 320.137 313.299 318.975L313.224 316.998L313.304 316L313.576 314C313.706 312.999 313.837 312.007 313.911 311C314.033 309.335 314.009 307.664 314.17 306L314.576 303C314.715 302.001 314.842 301.007 314.91 300C315.002 298.669 314.996 297.333 314.999 296L315 291L314.999 286L314.981 284.005L314.941 283.019L314.682 281.148L314.397 280.318L313.972 279.603L313.397 279.028C312.455 278.281 311.14 278.126 309.985 278.059C309.045 278.004 308.102 278.005 307.16 278.001L304 278z"/>
</svg>
